# xmcd
#
# Track frame offsets: 
#        150
#        21605
#        42260
#        65005
#        97503
#        121709
#        137445
#        162381
#        184665
#
# Disc length: 2671 seconds
#
# Revision: 0
# Processed by: cddbd v1.5.2PL0 Copyright (c) Steve Scherf et al.
# Submitted via: ExactAudioCopyFreeDBPlugin 1.0
#
DISCID=6f0a6d09
DTITLE=The Rolling Stones - 2016 - Havana Moon Cd 1
DYEAR=2016
DGENRE=
TTITLE0=Jumpin' Jack Flash (Live)
TTITLE1=It's Only Rock 'n' Roll (But I Like It, Live)
TTITLE2=Tumbling Dice (Live)
TTITLE3=Out Of Control (Live)
TTITLE4=All Down The Line (Live)
TTITLE5=Angie (Live)
TTITLE6=Paint It Black (Live)
TTITLE7=Honky Tonk Woman (Live)
TTITLE8=You Got The Silver (Live)
EXTD=
EXTT0=
EXTT1=
EXTT2=
EXTT3=
EXTT4=
EXTT5=
EXTT6=
EXTT7=
EXTT8=
PLAYORDER=
